<?xml version="1.0" encoding="utf-8"?>
<!-- Generator: Adobe Illustrator 21.0.0, SVG Export Plug-In . SVG Version: 6.00 Build 0)  -->
<svg version="1.1" id="Calque_1" xmlns="http://www.w3.org/2000/svg" xmlns:xlink="http://www.w3.org/1999/xlink" x="0px" y="0px"
	 viewBox="0 0 50 50" style="enable-background:new 0 0 50 50;" xml:space="preserve">
<style type="text/css">
	.st0{fill:#424242;}
</style>
<g>
	<g>
		<polygon class="st0" points="28,25.3 26.3,26.3 26.3,43.8 41.5,35 41.5,17.5 		"/>
		<polygon class="st0" points="30.8,9.6 24.9,6.2 9.4,15.2 15.2,18.6 		"/>
		<polygon class="st0" points="40.5,15.2 33.8,11.4 18.2,20.4 19.1,20.8 24.9,24.2 30.7,20.9 		"/>
		<polygon class="st0" points="17,26.8 14.3,25.4 14.3,20.9 8.5,17.6 8.5,35 23.6,43.7 23.6,26.3 17,22.6 		"/>
	</g>
</g>
<g>
	<path d="M23.5,50c-0.9-0.1-1.9-0.2-2.8-0.4c-5.7-1-10.6-3.7-14.4-8.1c-3.5-4-5.6-8.7-6.1-14c-0.6-6.5,1-12.4,5-17.6
		C8.9,5,13.8,1.8,19.9,0.6C27.2-0.9,34,0.6,40,5c0.8,0.6,1.6,1.3,2.4,2c1,0.9,1,1.8,0,2.8C33,19.3,23.5,28.7,14.1,38.2
		c-0.4,0.4-0.9,0.9-1.3,1.3c-0.8,0.8-1.7,0.8-2.4,0.2C9.6,39,9.7,38,10.5,37.2c6.9-6.9,13.8-13.8,20.6-20.6c2.6-2.6,5.1-5.1,7.7-7.7
		c0.1-0.1,0.3-0.2,0.6-0.4c-0.2-0.1-0.3-0.2-0.4-0.3c-2.9-2.4-6.3-4-10-4.7c-6.7-1.1-12.8,0.4-18,4.8c-4.2,3.5-6.7,8-7.5,13.3
		c-0.9,6,0.5,11.6,4.2,16.5c3.5,4.7,8.3,7.5,14.1,8.4c7.7,1.1,14.3-1.3,19.6-7.1c2.9-3.1,4.6-6.9,5.2-11.1c0.7-4.6,0-9-2.1-13.2
		c-0.4-0.8-0.9-1.5-1.3-2.3c-0.5-0.9-0.4-1.9,0.4-2.3c0.8-0.5,1.7-0.2,2.3,0.7c2.1,3.2,3.4,6.6,3.9,10.4c0.1,0.7,0.2,1.4,0.2,2.2
		c0,0.9,0,1.8,0,2.7c0,0.4-0.1,0.7-0.1,1.1c-0.4,3.7-1.5,7.1-3.4,10.2c-4,6.5-9.7,10.4-17.1,11.9c-1,0.2-1.9,0.3-2.9,0.4
		C25.5,50,24.5,50,23.5,50z"/>
</g>
</svg>
