<?xml version="1.0" encoding="utf-8"?>
<!-- Generator: Adobe Illustrator 21.0.0, SVG Export Plug-In . SVG Version: 6.00 Build 0)  -->
<svg version="1.1" id="Calque_1" xmlns="http://www.w3.org/2000/svg" xmlns:xlink="http://www.w3.org/1999/xlink" x="0px" y="0px"
	 viewBox="0 0 50 50" style="enable-background:new 0 0 50 50;" xml:space="preserve">
<style type="text/css">
	.st0{fill:#FFFFFF;}
</style>
<g>
	<g>
		<path class="st0" d="M7.7,27.8h29.9c1.2,0,2.2-1.3,2.2-2.8s-1-2.8-2.2-2.8H7.7l4.3-5.4c0.9-1.1,0.9-2.9,0-4
			c-0.4-0.5-1-0.8-1.6-0.8s-1.1,0.3-1.6,0.8L0.7,23c-0.2,0.3-0.3,0.6-0.6,0.9C0.1,24.3,0,24.6,0,25s0,0.7,0.2,1.1
			c0.1,0.4,0.3,0.7,0.4,0.9l8.2,10.1c0.4,0.5,1,0.8,1.6,0.8s1.1-0.3,1.6-0.8c0.9-1.1,0.9-2.9,0-3.9L7.7,27.8z"/>
		<path class="st0" d="M43.2,0H20.5c-3.7,0-6.8,4.2-6.8,9.3v8.3c0,1.5,0.9,2.7,2,2.7c0.7,0,1.3-0.5,1.6-1.1h0.4V9.3
			c0-2.1,1.2-3.7,2.7-3.7h22.8c1.5,0,2.7,1.7,2.7,3.7v31.4c0,2.1-1.2,3.7-2.7,3.7H20.5c-1.5,0-2.7-1.7-2.7-3.7v-9.9h-0.4
			c-0.4-0.7-1-1.1-1.6-1.1c-1.1,0-2,1.2-2,2.8v8.2c0,5.1,3,9.3,6.8,9.3h22.8c3.7,0,6.8-4.2,6.8-9.3V9.3C50,4.2,47,0,43.2,0z"/>
	</g>
</g>
</svg>
