<?xml version="1.0" encoding="utf-8"?>
<!-- Generator: Adobe Illustrator 21.0.0, SVG Export Plug-In . SVG Version: 6.00 Build 0)  -->
<svg version="1.1" id="Calque_1" xmlns="http://www.w3.org/2000/svg" xmlns:xlink="http://www.w3.org/1999/xlink" x="0px" y="0px"
	 viewBox="0 0 50 50" style="enable-background:new 0 0 50 50;" xml:space="preserve">
<style type="text/css">
	.st0{fill:#FFFFFF;}
</style>
<g>
	<path class="st0" d="M48.5,22.6C45.5,14.2,37.4,10,24.1,10h-6.2V2c0-0.5-0.2-1-0.5-1.4C17,0.2,16.6,0,16.1,0s-0.9,0.2-1.3,0.6
		l-14.3,16C0.2,17,0,17.5,0,18s0.2,1,0.5,1.4l14.3,16c0.4,0.4,0.8,0.6,1.3,0.6s0.9-0.2,1.3-0.6c0.4-0.4,0.5-0.9,0.5-1.4v-8h6.2
		c1.8,0,3.5,0.1,4.9,0.2s2.9,0.3,4.3,0.7c1.4,0.3,2.7,0.8,3.7,1.3c1.1,0.6,2,1.3,2.9,2.2c0.9,0.9,1.7,1.9,2.2,3.2
		c0.6,1.2,1,2.7,1.4,4.3c0.3,1.7,0.5,3.6,0.5,5.7c0,1.1,0,2.4-0.1,3.8c0,0.1,0,0.4-0.1,0.7c0,0.4-0.1,0.6-0.1,0.8
		c0,0.3,0.1,0.6,0.2,0.8c0.2,0.2,0.4,0.3,0.7,0.3s0.6-0.2,0.8-0.5c0.1-0.2,0.3-0.4,0.4-0.7c0.1-0.3,0.2-0.6,0.4-0.9
		c0.1-0.4,0.2-0.6,0.3-0.7c2.3-6,3.5-10.7,3.5-14.2C50,28.9,49.5,25.4,48.5,22.6z"/>
</g>
</svg>
